# xmcd CD database file
# Copyright (C) 1993-1998 Ti Kan
#
# Track frame offsets:
#  150
#  16705
#  30267
#  44230
#  62525
#  78412
#  93997
#  110072
#  125810
#  143000
#  157822
#  172762
#  186185
#  201487
#  213927
#  226977
#  238907
#  250095
#  265377
#  276845
#  292915
#  304115
#  320345
#
# Disc length: 4587 seconds
#
# Revision: 2
# Processed by: cddbd v1.4PL0 Copyright (c) Steve Scherf et al.
# Submitted via: Gronk 1.4
#
DISCID=4111e917
DTITLE=Johnny Mathis - The Love Songs
DYEAR=1900
DGENRE=blues
TTITLE0=How Deep Is Your Love
TTITLE1=I'll Never Fall In Love Again
TTITLE2=We've Only Just Begun
TTITLE3=With You I'm Born Again
TTITLE4=Mandy
TTITLE5=Feelings
TTITLE6=I Only Have Eyes For You
TTITLE7=I'm Stone In Love With You
TTITLE8=The Way We Were
TTITLE9=Help Me Make It Through The Night
TTITLE10=We're All Alone
TTITLE11=Too Much, Too Little, Too Late
TTITLE12=When I Need You
TTITLE13=Where Do I Begin ? (Love Story)
TTITLE14=Without You
TTITLE15=You Are The Sunshine Of My Life
TTITLE16=The Most Beautiful Girl
TTITLE17=A Man And A Woman
TTITLE18=When Will I See You Again ?
TTITLE19=Misty
TTITLE20=The Twelfth Of Never
TTITLE21=The First Time (Ever I Saw Your Face)
TTITLE22=Killing Me Softly With Her Song
EXTD=
EXTT0=
EXTT1=
EXTT2=
EXTT3=
EXTT4=
EXTT5=
EXTT6=
EXTT7=
EXTT8=
EXTT9=
EXTT10=
EXTT11=
EXTT12=
EXTT13=
EXTT14=
EXTT15=
EXTT16=
EXTT17=
EXTT18=
EXTT19=
EXTT20=
EXTT21=
EXTT22=
PLAYORDER=
